<svg width="310" height="133" viewBox="0 0 310 133" fill="none" xmlns="http://www.w3.org/2000/svg">
<g filter="url(#filter0_d_2_4)">
<rect x="10" y="2" width="290" height="113" rx="5" fill="white"/>
<rect x="11" y="3" width="288" height="111" rx="4" stroke="#F2AE4B" stroke-width="2"/>
</g>
<path d="M270.008 29.2969C270.018 28.6771 270.089 28.1875 270.219 27.8281C270.349 27.4688 270.615 27.0703 271.016 26.6328L272.039 25.5781C272.477 25.0833 272.695 24.5521 272.695 23.9844C272.695 23.4375 272.552 23.0104 272.266 22.7031C271.979 22.3906 271.563 22.2344 271.016 22.2344C270.485 22.2344 270.057 22.375 269.735 22.6562C269.412 22.9375 269.25 23.3151 269.25 23.7891H267.805C267.815 22.9453 268.115 22.2656 268.703 21.75C269.297 21.2292 270.068 20.9688 271.016 20.9688C272 20.9688 272.766 21.2344 273.313 21.7656C273.865 22.2917 274.141 23.0156 274.141 23.9375C274.141 24.849 273.719 25.7474 272.875 26.6328L272.024 27.4766C271.643 27.8984 271.453 28.5052 271.453 29.2969H270.008ZM269.945 31.7734C269.945 31.5391 270.016 31.3438 270.156 31.1875C270.302 31.026 270.516 30.9453 270.797 30.9453C271.078 30.9453 271.292 31.026 271.438 31.1875C271.583 31.3438 271.656 31.5391 271.656 31.7734C271.656 32.0078 271.583 32.2031 271.438 32.3594C271.292 32.5104 271.078 32.5859 270.797 32.5859C270.516 32.5859 270.302 32.5104 270.156 32.3594C270.016 32.2031 269.945 32.0078 269.945 31.7734Z" fill="#828282"/>
<circle cx="271" cy="27" r="9.5" stroke="#929292"/>
<path d="M57.3867 67H54V53.9453L49.957 55.1992V52.4453L57.0234 49.9141H57.3867V67ZM63.2578 65.3359C63.2578 64.7969 63.4375 64.3594 63.7969 64.0234C64.1641 63.6875 64.6211 63.5195 65.168 63.5195C65.7227 63.5195 66.1797 63.6875 66.5391 64.0234C66.9063 64.3594 67.0898 64.7969 67.0898 65.3359C67.0898 65.8672 66.9102 66.3008 66.5508 66.6367C66.1914 66.9648 65.7305 67.1289 65.168 67.1289C64.6133 67.1289 64.1563 66.9648 63.7969 66.6367C63.4375 66.3008 63.2578 65.8672 63.2578 65.3359ZM81.6211 67H69.9258V64.6797L75.4453 58.7969C76.2031 57.9687 76.7617 57.2461 77.1211 56.6289C77.4883 56.0117 77.6719 55.4258 77.6719 54.8711C77.6719 54.1133 77.4805 53.5195 77.0977 53.0898C76.7148 52.6523 76.168 52.4336 75.457 52.4336C74.6914 52.4336 74.0859 52.6992 73.6406 53.2305C73.2031 53.7539 72.9844 54.4453 72.9844 55.3047H69.5859C69.5859 54.2656 69.832 53.3164 70.3242 52.457C70.8242 51.5977 71.5273 50.9258 72.4336 50.4414C73.3398 49.9492 74.3672 49.7031 75.5156 49.7031C77.2734 49.7031 78.6367 50.125 79.6055 50.9688C80.582 51.8125 81.0703 53.0039 81.0703 54.543C81.0703 55.3867 80.8516 56.2461 80.4141 57.1211C79.9766 57.9961 79.2266 59.0156 78.1641 60.1797L74.2852 64.2695H81.6211V67ZM93.7266 60.5781H95.6602V63.3086H93.7266V67H90.3398V63.3086H83.3438L83.1914 61.1758L90.3047 49.9375H93.7266V60.5781ZM86.5664 60.5781H90.3398V54.5547L90.1172 54.9414L86.5664 60.5781ZM97.9922 58.6094L98.9766 49.9375H108.539V52.7617H101.754L101.332 56.4297C102.137 56 102.992 55.7852 103.898 55.7852C105.523 55.7852 106.797 56.2891 107.719 57.2969C108.641 58.3047 109.102 59.7148 109.102 61.5273C109.102 62.6289 108.867 63.6172 108.398 64.4922C107.938 65.3594 107.273 66.0352 106.406 66.5195C105.539 66.9961 104.516 67.2344 103.336 67.2344C102.305 67.2344 101.348 67.0273 100.465 66.6133C99.582 66.1914 98.8828 65.6016 98.3672 64.8438C97.8594 64.0859 97.5898 63.2227 97.5586 62.2539H100.91C100.98 62.9648 101.227 63.5195 101.648 63.918C102.078 64.3086 102.637 64.5039 103.324 64.5039C104.09 64.5039 104.68 64.2305 105.094 63.6836C105.508 63.1289 105.715 62.3477 105.715 61.3398C105.715 60.3711 105.477 59.6289 105 59.1133C104.523 58.5977 103.848 58.3398 102.973 58.3398C102.168 58.3398 101.516 58.5508 101.016 58.9727L100.688 59.2773L97.9922 58.6094ZM122.754 59.9453C122.754 62.3047 122.266 64.1094 121.289 65.3594C120.313 66.6094 118.883 67.2344 117 67.2344C115.141 67.2344 113.719 66.6211 112.734 65.3945C111.75 64.168 111.246 62.4102 111.223 60.1211V56.9805C111.223 54.5977 111.715 52.7891 112.699 51.5547C113.691 50.3203 115.117 49.7031 116.977 49.7031C118.836 49.7031 120.258 50.3164 121.242 51.543C122.227 52.7617 122.73 54.5156 122.754 56.8047V59.9453ZM119.367 56.5C119.367 55.0859 119.172 54.0586 118.781 53.418C118.398 52.7695 117.797 52.4453 116.977 52.4453C116.18 52.4453 115.59 52.7539 115.207 53.3711C114.832 53.9805 114.633 54.9375 114.609 56.2422V60.3906C114.609 61.7812 114.797 62.8164 115.172 63.4961C115.555 64.168 116.164 64.5039 117 64.5039C117.828 64.5039 118.426 64.1797 118.793 63.5312C119.16 62.8828 119.352 61.8906 119.367 60.5547V56.5ZM136.535 59.9453C136.535 62.3047 136.047 64.1094 135.07 65.3594C134.094 66.6094 132.664 67.2344 130.781 67.2344C128.922 67.2344 127.5 66.6211 126.516 65.3945C125.531 64.168 125.027 62.4102 125.004 60.1211V56.9805C125.004 54.5977 125.496 52.7891 126.48 51.5547C127.473 50.3203 128.898 49.7031 130.758 49.7031C132.617 49.7031 134.039 50.3164 135.023 51.543C136.008 52.7617 136.512 54.5156 136.535 56.8047V59.9453ZM133.148 56.5C133.148 55.0859 132.953 54.0586 132.562 53.418C132.18 52.7695 131.578 52.4453 130.758 52.4453C129.961 52.4453 129.371 52.7539 128.988 53.3711C128.613 53.9805 128.414 54.9375 128.391 56.2422V60.3906C128.391 61.7812 128.578 62.8164 128.953 63.4961C129.336 64.168 129.945 64.5039 130.781 64.5039C131.609 64.5039 132.207 64.1797 132.574 63.5312C132.941 62.8828 133.133 61.8906 133.148 60.5547V56.5ZM149.953 54.4727C149.953 55.3008 149.746 56.0352 149.332 56.6758C148.918 57.3164 148.348 57.8281 147.621 58.2109C148.449 58.6094 149.105 59.1602 149.59 59.8633C150.074 60.5586 150.316 61.3789 150.316 62.3242C150.316 63.8398 149.801 65.0391 148.77 65.9219C147.738 66.7969 146.336 67.2344 144.562 67.2344C142.789 67.2344 141.383 66.793 140.344 65.9102C139.305 65.0273 138.785 63.832 138.785 62.3242C138.785 61.3789 139.027 60.5547 139.512 59.8516C139.996 59.1484 140.648 58.6016 141.469 58.2109C140.742 57.8281 140.172 57.3164 139.758 56.6758C139.352 56.0352 139.148 55.3008 139.148 54.4727C139.148 53.0195 139.633 51.8633 140.602 51.0039C141.57 50.1367 142.887 49.7031 144.551 49.7031C146.207 49.7031 147.52 50.1328 148.488 50.9922C149.465 51.8437 149.953 53.0039 149.953 54.4727ZM146.918 62.0781C146.918 61.3359 146.703 60.7422 146.273 60.2969C145.844 59.8516 145.266 59.6289 144.539 59.6289C143.82 59.6289 143.246 59.8516 142.816 60.2969C142.387 60.7344 142.172 61.3281 142.172 62.0781C142.172 62.8047 142.383 63.3906 142.805 63.8359C143.227 64.2812 143.812 64.5039 144.562 64.5039C145.297 64.5039 145.871 64.2891 146.285 63.8594C146.707 63.4297 146.918 62.8359 146.918 62.0781ZM146.566 54.6367C146.566 53.9727 146.391 53.4414 146.039 53.043C145.688 52.6367 145.191 52.4336 144.551 52.4336C143.918 52.4336 143.426 52.6289 143.074 53.0195C142.723 53.4102 142.547 53.9492 142.547 54.6367C142.547 55.3164 142.723 55.8633 143.074 56.2773C143.426 56.6914 143.922 56.8984 144.562 56.8984C145.203 56.8984 145.695 56.6914 146.039 56.2773C146.391 55.8633 146.566 55.3164 146.566 54.6367ZM156.824 67V57.0469H160.311C161.518 57.0469 162.434 57.2793 163.059 57.7441C163.683 58.2044 163.995 58.8812 163.995 59.7744C163.995 60.262 163.87 60.6927 163.619 61.0664C163.368 61.4355 163.02 61.7067 162.573 61.8799C163.084 62.0075 163.485 62.265 163.776 62.6523C164.073 63.0397 164.221 63.5137 164.221 64.0742C164.221 65.0312 163.915 65.7559 163.305 66.248C162.694 66.7402 161.824 66.9909 160.693 67H156.824ZM158.875 62.666V65.3525H160.632C161.115 65.3525 161.491 65.2386 161.76 65.0107C162.033 64.7783 162.17 64.4593 162.17 64.0537C162.17 63.1423 161.698 62.6797 160.755 62.666H158.875ZM158.875 61.2168H160.393C161.427 61.1986 161.944 60.7861 161.944 59.9795C161.944 59.5283 161.812 59.2048 161.548 59.0088C161.288 58.8083 160.876 58.708 160.311 58.708H158.875V61.2168ZM173.066 58.708H170.018V67H167.967V58.708H164.959V57.0469H173.066V58.708ZM181.864 63.6846C181.787 64.7555 181.39 65.5986 180.675 66.2139C179.964 66.8291 179.025 67.1367 177.858 67.1367C176.582 67.1367 175.577 66.7083 174.844 65.8516C174.115 64.9902 173.75 63.8099 173.75 62.3105V61.7021C173.75 60.7451 173.919 59.902 174.256 59.1729C174.593 58.4437 175.074 57.8854 175.698 57.498C176.327 57.1061 177.056 56.9102 177.886 56.9102C179.034 56.9102 179.959 57.2178 180.661 57.833C181.363 58.4482 181.769 59.3118 181.878 60.4238H179.827C179.777 59.7812 179.597 59.3164 179.287 59.0293C178.982 58.7376 178.515 58.5918 177.886 58.5918C177.202 58.5918 176.689 58.8379 176.348 59.3301C176.01 59.8177 175.837 60.5765 175.828 61.6064V62.3584C175.828 63.4339 175.99 64.2201 176.313 64.7168C176.642 65.2135 177.157 65.4619 177.858 65.4619C178.492 65.4619 178.964 65.3184 179.273 65.0312C179.588 64.7396 179.768 64.2907 179.813 63.6846H181.864Z" fill="black"/>
<path d="M44.6875 28.3906C44.5469 29.5938 44.1016 30.5234 43.3516 31.1797C42.6068 31.8307 41.6146 32.1562 40.375 32.1562C39.0312 32.1562 37.9531 31.6745 37.1406 30.7109C36.3333 29.7474 35.9297 28.4583 35.9297 26.8438V25.75C35.9297 24.6927 36.1172 23.763 36.4922 22.9609C36.8724 22.1589 37.4089 21.5443 38.1016 21.1172C38.7943 20.6849 39.5964 20.4688 40.5078 20.4688C41.7161 20.4688 42.6849 20.8073 43.4141 21.4844C44.1432 22.1562 44.5677 23.0885 44.6875 24.2812H43.1797C43.0495 23.375 42.7656 22.7188 42.3281 22.3125C41.8958 21.9062 41.2891 21.7031 40.5078 21.7031C39.5495 21.7031 38.7969 22.0573 38.25 22.7656C37.7083 23.474 37.4375 24.4818 37.4375 25.7891V26.8906C37.4375 28.125 37.6953 29.1068 38.2109 29.8359C38.7266 30.5651 39.4479 30.9297 40.375 30.9297C41.2083 30.9297 41.8464 30.7422 42.2891 30.3672C42.737 29.987 43.0339 29.3281 43.1797 28.3906H44.6875ZM49.2812 29.8828L51.25 23.5469H52.7969L49.3984 33.3047C48.8724 34.7109 48.0365 35.4141 46.8906 35.4141L46.6172 35.3906L46.0781 35.2891V34.1172L46.4688 34.1484C46.9583 34.1484 47.3385 34.0495 47.6094 33.8516C47.8854 33.6536 48.112 33.2917 48.2891 32.7656L48.6094 31.9062L45.5938 23.5469H47.1719L49.2812 29.8828ZM58.9609 30.0859L61.8359 23.5469H63.6406V32H62.1953V25.8516L59.4609 32H58.4609L55.6719 25.7188V32H54.2266V23.5469H56.1016L58.9609 30.0859ZM70.8359 30.0859L73.7109 23.5469H75.5156V32H74.0703V25.8516L71.3359 32H70.3359L67.5469 25.7188V32H66.1016V23.5469H67.9766L70.8359 30.0859ZM83.0625 32C82.9792 31.8333 82.9115 31.5365 82.8594 31.1094C82.1875 31.8073 81.3854 32.1562 80.4531 32.1562C79.6198 32.1562 78.9349 31.9219 78.3984 31.4531C77.8672 30.9792 77.6016 30.3802 77.6016 29.6562C77.6016 28.776 77.9349 28.0938 78.6016 27.6094C79.2734 27.1198 80.2161 26.875 81.4297 26.875H82.8359V26.2109C82.8359 25.7057 82.6849 25.3047 82.3828 25.0078C82.0807 24.7057 81.6354 24.5547 81.0469 24.5547C80.5312 24.5547 80.099 24.6849 79.75 24.9453C79.401 25.2057 79.2266 25.5208 79.2266 25.8906H77.7734C77.7734 25.4688 77.9219 25.0625 78.2188 24.6719C78.5208 24.276 78.9271 23.9635 79.4375 23.7344C79.9531 23.5052 80.5182 23.3906 81.1328 23.3906C82.1068 23.3906 82.8698 23.6354 83.4219 24.125C83.974 24.6094 84.2604 25.2786 84.2812 26.1328V30.0234C84.2812 30.7995 84.3802 31.4167 84.5781 31.875V32H83.0625ZM80.6641 30.8984C81.1172 30.8984 81.5469 30.7812 81.9531 30.5469C82.3594 30.3125 82.6536 30.0078 82.8359 29.6328V27.8984H81.7031C79.9323 27.8984 79.0469 28.4167 79.0469 29.4531C79.0469 29.9062 79.1979 30.2604 79.5 30.5156C79.8021 30.7708 80.1901 30.8984 80.6641 30.8984ZM93.6875 27.8672C93.6875 29.1536 93.3932 30.1901 92.8047 30.9766C92.2161 31.763 91.4193 32.1562 90.4141 32.1562C89.388 32.1562 88.5807 31.8307 87.9922 31.1797V35.25H86.5469V23.5469H87.8672L87.9375 24.4844C88.526 23.7552 89.3438 23.3906 90.3906 23.3906C91.4062 23.3906 92.2083 23.7734 92.7969 24.5391C93.3906 25.3047 93.6875 26.3698 93.6875 27.7344V27.8672ZM92.2422 27.7031C92.2422 26.75 92.0391 25.9974 91.6328 25.4453C91.2266 24.8932 90.6693 24.6172 89.9609 24.6172C89.0859 24.6172 88.4297 25.0052 87.9922 25.7812V29.8203C88.4245 30.5911 89.0859 30.9766 89.9766 30.9766C90.6693 30.9766 91.2188 30.7031 91.625 30.1562C92.0365 29.6042 92.2422 28.7865 92.2422 27.7031ZM102.438 32H100.992V28.3906H97.1094V32H95.6562V23.5469H97.1094V27.2109H100.992V23.5469H102.438V32ZM106.344 26.4609H108.539C109.497 26.4714 110.255 26.7214 110.812 27.2109C111.37 27.7005 111.648 28.3646 111.648 29.2031C111.648 30.0469 111.362 30.724 110.789 31.2344C110.216 31.7448 109.445 32 108.477 32H104.898V23.5469H106.344V26.4609ZM114.664 32H113.211V23.5469H114.664V32ZM106.344 27.6406V30.8203H108.492C109.034 30.8203 109.453 30.6823 109.75 30.4062C110.047 30.125 110.195 29.7422 110.195 29.2578C110.195 28.7891 110.049 28.4062 109.758 28.1094C109.471 27.8073 109.068 27.651 108.547 27.6406H106.344ZM122.656 23.5469H124.102V32H122.656V25.8359L118.758 32H117.312V23.5469H118.758V29.7188L122.656 23.5469ZM123.047 20.4688C123.047 21.099 122.831 21.6068 122.398 21.9922C121.971 22.3724 121.409 22.5625 120.711 22.5625C120.013 22.5625 119.448 22.3698 119.016 21.9844C118.583 21.599 118.367 21.0938 118.367 20.4688H119.547C119.547 20.8333 119.646 21.1198 119.844 21.3281C120.042 21.5312 120.331 21.6328 120.711 21.6328C121.076 21.6328 121.359 21.5312 121.562 21.3281C121.771 21.125 121.875 20.8385 121.875 20.4688H123.047ZM134.102 24.0312C135.164 24.0312 136.013 24.388 136.648 25.1016C137.289 25.8099 137.609 26.7448 137.609 27.9062V28.0391C137.609 28.8359 137.456 29.5495 137.148 30.1797C136.841 30.8047 136.398 31.2917 135.82 31.6406C135.247 31.9844 134.586 32.1562 133.836 32.1562C132.701 32.1562 131.786 31.7786 131.094 31.0234C130.401 30.263 130.055 29.2448 130.055 27.9688V27.2656C130.055 25.4896 130.383 24.0781 131.039 23.0312C131.701 21.9844 132.674 21.3464 133.961 21.1172C134.69 20.987 135.182 20.8281 135.438 20.6406C135.693 20.4531 135.82 20.1953 135.82 19.8672H137.008C137.008 20.5182 136.859 21.026 136.562 21.3906C136.271 21.7552 135.802 22.013 135.156 22.1641L134.078 22.4062C133.219 22.6094 132.573 22.9531 132.141 23.4375C131.714 23.9167 131.435 24.5573 131.305 25.3594C132.07 24.474 133.003 24.0312 134.102 24.0312ZM133.82 25.2188C133.112 25.2188 132.549 25.4583 132.133 25.9375C131.716 26.4115 131.508 27.0703 131.508 27.9141V28.0391C131.508 28.9453 131.716 29.6641 132.133 30.1953C132.555 30.7214 133.122 30.9844 133.836 30.9844C134.555 30.9844 135.122 30.7188 135.539 30.1875C135.956 29.6562 136.164 28.8802 136.164 27.8594C136.164 27.0625 135.953 26.4245 135.531 25.9453C135.115 25.4609 134.544 25.2188 133.82 25.2188ZM144.453 32C144.37 31.8333 144.302 31.5365 144.25 31.1094C143.578 31.8073 142.776 32.1562 141.844 32.1562C141.01 32.1562 140.326 31.9219 139.789 31.4531C139.258 30.9792 138.992 30.3802 138.992 29.6562C138.992 28.776 139.326 28.0938 139.992 27.6094C140.664 27.1198 141.607 26.875 142.82 26.875H144.227V26.2109C144.227 25.7057 144.076 25.3047 143.773 25.0078C143.471 24.7057 143.026 24.5547 142.438 24.5547C141.922 24.5547 141.49 24.6849 141.141 24.9453C140.792 25.2057 140.617 25.5208 140.617 25.8906H139.164C139.164 25.4688 139.312 25.0625 139.609 24.6719C139.911 24.276 140.318 23.9635 140.828 23.7344C141.344 23.5052 141.909 23.3906 142.523 23.3906C143.497 23.3906 144.26 23.6354 144.812 24.125C145.365 24.6094 145.651 25.2786 145.672 26.1328V30.0234C145.672 30.7995 145.771 31.4167 145.969 31.875V32H144.453ZM142.055 30.8984C142.508 30.8984 142.938 30.7812 143.344 30.5469C143.75 30.3125 144.044 30.0078 144.227 29.6328V27.8984H143.094C141.323 27.8984 140.438 28.4167 140.438 29.4531C140.438 29.9062 140.589 30.2604 140.891 30.5156C141.193 30.7708 141.581 30.8984 142.055 30.8984ZM154.867 23.5469V32H153.414V24.7422H150.539L150.367 27.9062C150.273 29.3594 150.029 30.3984 149.633 31.0234C149.242 31.6484 148.62 31.974 147.766 32H147.188V30.7266L147.602 30.6953C148.07 30.6432 148.406 30.3724 148.609 29.8828C148.812 29.3932 148.943 28.487 149 27.1641L149.156 23.5469H154.867ZM162.406 32C162.323 31.8333 162.255 31.5365 162.203 31.1094C161.531 31.8073 160.729 32.1562 159.797 32.1562C158.964 32.1562 158.279 31.9219 157.742 31.4531C157.211 30.9792 156.945 30.3802 156.945 29.6562C156.945 28.776 157.279 28.0938 157.945 27.6094C158.617 27.1198 159.56 26.875 160.773 26.875H162.18V26.2109C162.18 25.7057 162.029 25.3047 161.727 25.0078C161.424 24.7057 160.979 24.5547 160.391 24.5547C159.875 24.5547 159.443 24.6849 159.094 24.9453C158.745 25.2057 158.57 25.5208 158.57 25.8906H157.117C157.117 25.4688 157.266 25.0625 157.562 24.6719C157.865 24.276 158.271 23.9635 158.781 23.7344C159.297 23.5052 159.862 23.3906 160.477 23.3906C161.451 23.3906 162.214 23.6354 162.766 24.125C163.318 24.6094 163.604 25.2786 163.625 26.1328V30.0234C163.625 30.7995 163.724 31.4167 163.922 31.875V32H162.406ZM160.008 30.8984C160.461 30.8984 160.891 30.7812 161.297 30.5469C161.703 30.3125 161.997 30.0078 162.18 29.6328V27.8984H161.047C159.276 27.8984 158.391 28.4167 158.391 29.4531C158.391 29.9062 158.542 30.2604 158.844 30.5156C159.146 30.7708 159.534 30.8984 160.008 30.8984ZM172.797 32H171.352V28.3906H167.469V32H166.016V23.5469H167.469V27.2109H171.352V23.5469H172.797V32ZM178.516 30.9766C179.031 30.9766 179.482 30.8203 179.867 30.5078C180.253 30.1953 180.466 29.8047 180.508 29.3359H181.875C181.849 29.8203 181.682 30.2812 181.375 30.7188C181.068 31.1562 180.656 31.5052 180.141 31.7656C179.63 32.026 179.089 32.1562 178.516 32.1562C177.365 32.1562 176.448 31.7734 175.766 31.0078C175.089 30.237 174.75 29.1849 174.75 27.8516V27.6094C174.75 26.7865 174.901 26.0547 175.203 25.4141C175.505 24.7734 175.938 24.276 176.5 23.9219C177.068 23.5677 177.737 23.3906 178.508 23.3906C179.456 23.3906 180.242 23.6745 180.867 24.2422C181.497 24.8099 181.833 25.5469 181.875 26.4531H180.508C180.466 25.9062 180.258 25.4583 179.883 25.1094C179.513 24.7552 179.055 24.5781 178.508 24.5781C177.773 24.5781 177.203 24.8438 176.797 25.375C176.396 25.901 176.195 26.6641 176.195 27.6641V27.9375C176.195 28.9115 176.396 29.6615 176.797 30.1875C177.198 30.7135 177.771 30.9766 178.516 30.9766Z" fill="#828282"/>
<path d="M40.4756 94H38.5V86.3848L36.1416 87.1162V85.5098L40.2637 84.0332H40.4756V94ZM44.0098 89.1055L44.584 84.0469H50.1621V85.6943H46.2041L45.958 87.834C46.4274 87.5833 46.9264 87.458 47.4551 87.458C48.403 87.458 49.1458 87.752 49.6836 88.3398C50.2214 88.9277 50.4902 89.7503 50.4902 90.8076C50.4902 91.4502 50.3535 92.0267 50.0801 92.5371C49.8112 93.043 49.4238 93.4372 48.918 93.7197C48.4121 93.9977 47.8151 94.1367 47.127 94.1367C46.5254 94.1367 45.9671 94.016 45.4521 93.7744C44.9372 93.5283 44.5293 93.1842 44.2285 92.7422C43.9323 92.3001 43.7751 91.7965 43.7568 91.2314H45.7119C45.7529 91.6462 45.8965 91.9697 46.1426 92.2021C46.3932 92.43 46.7191 92.5439 47.1201 92.5439C47.5667 92.5439 47.9108 92.3844 48.1523 92.0654C48.3939 91.7419 48.5146 91.2861 48.5146 90.6982C48.5146 90.1331 48.3757 89.7002 48.0977 89.3994C47.8197 89.0986 47.4255 88.9482 46.915 88.9482C46.4456 88.9482 46.0651 89.0713 45.7734 89.3174L45.582 89.4951L44.0098 89.1055ZM60.6006 83.9443V85.5713H60.4092C59.516 85.585 58.7959 85.8174 58.249 86.2686C57.7067 86.7197 57.3809 87.3464 57.2715 88.1484C57.8001 87.6107 58.4678 87.3418 59.2744 87.3418C60.1403 87.3418 60.8285 87.6517 61.3389 88.2715C61.8493 88.8913 62.1045 89.707 62.1045 90.7188C62.1045 91.3659 61.9632 91.9515 61.6807 92.4756C61.4027 92.9997 61.0062 93.4076 60.4912 93.6992C59.9808 93.9909 59.402 94.1367 58.7549 94.1367C57.7067 94.1367 56.859 93.7721 56.2119 93.043C55.5693 92.3138 55.248 91.3408 55.248 90.124V89.4131C55.248 88.333 55.4508 87.3805 55.8564 86.5557C56.2666 85.7262 56.8522 85.0859 57.6133 84.6348C58.3789 84.179 59.2653 83.9489 60.2725 83.9443H60.6006ZM58.6729 88.9277C58.3538 88.9277 58.0645 89.012 57.8047 89.1807C57.5449 89.3447 57.3535 89.5635 57.2305 89.8369V90.4385C57.2305 91.0993 57.3604 91.6165 57.6201 91.9902C57.8799 92.3594 58.2445 92.5439 58.7139 92.5439C59.1377 92.5439 59.4795 92.3776 59.7393 92.0449C60.0036 91.7077 60.1357 91.2725 60.1357 90.7393C60.1357 90.1969 60.0036 89.7594 59.7393 89.4268C59.4749 89.0941 59.1195 88.9277 58.6729 88.9277ZM70.0479 85.1543L66.1992 94H64.1143L67.9697 85.6465H63.0205V84.0469H70.0479V85.1543ZM77.8066 86.6924C77.8066 87.1755 77.6859 87.6038 77.4443 87.9775C77.2028 88.3512 76.8701 88.6497 76.4463 88.873C76.9294 89.1055 77.3122 89.4268 77.5947 89.8369C77.8773 90.2425 78.0186 90.721 78.0186 91.2725C78.0186 92.1566 77.7178 92.8561 77.1162 93.3711C76.5146 93.8815 75.6966 94.1367 74.6621 94.1367C73.6276 94.1367 72.8073 93.8792 72.2012 93.3643C71.5951 92.8493 71.292 92.152 71.292 91.2725C71.292 90.721 71.4333 90.2402 71.7158 89.8301C71.9984 89.4199 72.3789 89.1009 72.8574 88.873C72.4336 88.6497 72.1009 88.3512 71.8594 87.9775C71.6224 87.6038 71.5039 87.1755 71.5039 86.6924C71.5039 85.8447 71.7865 85.1702 72.3516 84.6689C72.9167 84.1631 73.6846 83.9102 74.6553 83.9102C75.6214 83.9102 76.387 84.1608 76.9521 84.6621C77.5218 85.1589 77.8066 85.8356 77.8066 86.6924ZM76.0361 91.1289C76.0361 90.696 75.9108 90.3496 75.6602 90.0898C75.4095 89.8301 75.0723 89.7002 74.6484 89.7002C74.2292 89.7002 73.8942 89.8301 73.6436 90.0898C73.3929 90.3451 73.2676 90.6914 73.2676 91.1289C73.2676 91.5527 73.3906 91.8945 73.6367 92.1543C73.8828 92.4141 74.2246 92.5439 74.6621 92.5439C75.0905 92.5439 75.4255 92.4186 75.667 92.168C75.9131 91.9173 76.0361 91.571 76.0361 91.1289ZM75.8311 86.7881C75.8311 86.4007 75.7285 86.0908 75.5234 85.8584C75.3184 85.6214 75.029 85.5029 74.6553 85.5029C74.2861 85.5029 73.999 85.6169 73.7939 85.8447C73.5889 86.0726 73.4863 86.387 73.4863 86.7881C73.4863 87.1846 73.5889 87.5036 73.7939 87.7451C73.999 87.9867 74.2884 88.1074 74.6621 88.1074C75.0358 88.1074 75.3229 87.9867 75.5234 87.7451C75.7285 87.5036 75.8311 87.1846 75.8311 86.7881ZM90.5898 84.0469V90.6025C90.5898 91.6917 90.248 92.5531 89.5645 93.1865C88.8854 93.82 87.9557 94.1367 86.7754 94.1367C85.6133 94.1367 84.6904 93.8291 84.0068 93.2139C83.3232 92.5986 82.9746 91.7533 82.9609 90.6777V84.0469H85.0117V90.6162C85.0117 91.2679 85.1667 91.7441 85.4766 92.0449C85.791 92.3411 86.224 92.4893 86.7754 92.4893C87.9284 92.4893 88.514 91.8831 88.5322 90.6709V84.0469H90.5898ZM97.4326 91.3887C97.4326 91.0013 97.2959 90.7051 97.0225 90.5C96.749 90.2904 96.2568 90.0716 95.5459 89.8438C94.835 89.6113 94.2721 89.3835 93.8574 89.1602C92.7272 88.5495 92.1621 87.7269 92.1621 86.6924C92.1621 86.1546 92.3125 85.6761 92.6133 85.2568C92.9186 84.833 93.3538 84.5026 93.9189 84.2656C94.4886 84.0286 95.1266 83.9102 95.833 83.9102C96.5439 83.9102 97.1774 84.04 97.7334 84.2998C98.2894 84.555 98.7201 84.9173 99.0254 85.3867C99.3353 85.8561 99.4902 86.3893 99.4902 86.9863H97.4395C97.4395 86.5306 97.2959 86.1774 97.0088 85.9268C96.7217 85.6715 96.3184 85.5439 95.7988 85.5439C95.2975 85.5439 94.9079 85.651 94.6299 85.8652C94.3519 86.0749 94.2129 86.3529 94.2129 86.6992C94.2129 87.0228 94.3747 87.2939 94.6982 87.5127C95.0264 87.7314 95.5072 87.9365 96.1406 88.1279C97.3073 88.4788 98.1572 88.9141 98.6904 89.4336C99.2236 89.9531 99.4902 90.6003 99.4902 91.375C99.4902 92.2363 99.1644 92.9131 98.5127 93.4053C97.861 93.8929 96.9837 94.1367 95.8809 94.1367C95.1152 94.1367 94.418 93.9977 93.7891 93.7197C93.1602 93.4372 92.6794 93.0521 92.3467 92.5645C92.0186 92.0768 91.8545 91.5117 91.8545 90.8691H93.9121C93.9121 91.9674 94.5684 92.5166 95.8809 92.5166C96.3685 92.5166 96.749 92.4186 97.0225 92.2227C97.2959 92.0221 97.4326 91.7441 97.4326 91.3887ZM100.885 94V84.0469H103.947C104.822 84.0469 105.604 84.2451 106.292 84.6416C106.985 85.0335 107.525 85.5941 107.912 86.3232C108.299 87.0479 108.493 87.8727 108.493 88.7979V89.2559C108.493 90.181 108.302 91.0036 107.919 91.7236C107.541 92.4437 107.005 93.002 106.312 93.3984C105.62 93.7949 104.838 93.9954 103.968 94H100.885ZM102.936 85.708V92.3525H103.927C104.729 92.3525 105.342 92.0905 105.766 91.5664C106.189 91.0423 106.406 90.2926 106.415 89.3174V88.791C106.415 87.7793 106.205 87.0137 105.786 86.4941C105.367 85.9701 104.754 85.708 103.947 85.708H102.936Z" fill="#4F4F4F"/>
<ellipse cx="38.0235" cy="59.2368" rx="3.23346" ry="3.23684" fill="#2F80ED"/>
<defs>
<filter id="filter0_d_2_4" x="0" y="0" width="310" height="133" filterUnits="userSpaceOnUse" color-interpolation-filters="sRGB">
<feFlood flood-opacity="0" result="BackgroundImageFix"/>
<feColorMatrix in="SourceAlpha" type="matrix" values="0 0 0 0 0 0 0 0 0 0 0 0 0 0 0 0 0 0 127 0" result="hardAlpha"/>
<feOffset dy="8"/>
<feGaussianBlur stdDeviation="5"/>
<feColorMatrix type="matrix" values="0 0 0 0 0.2346 0 0 0 0 0.330692 0 0 0 0 0.46 0 0 0 0.15 0"/>
<feBlend mode="normal" in2="BackgroundImageFix" result="effect1_dropShadow_2_4"/>
<feBlend mode="normal" in="SourceGraphic" in2="effect1_dropShadow_2_4" result="shape"/>
</filter>
</defs>
</svg>
