<svg width="233" height="68" viewBox="0 0 233 68" fill="none" xmlns="http://www.w3.org/2000/svg">
<g filter="url(#filter0_d_2_32)">
<rect x="10" y="2" width="212.941" height="48" rx="5" fill="url(#paint0_linear_2_32)"/>
</g>
<path d="M93.5684 21.0469L96.125 28.2656L98.668 21.0469H101.361V31H99.3037V28.2793L99.5088 23.583L96.8223 31H95.4141L92.7344 23.5898L92.9395 28.2793V31H90.8887V21.0469H93.5684ZM111.328 26.249C111.328 27.2288 111.155 28.0879 110.809 28.8262C110.462 29.5645 109.965 30.1341 109.318 30.5352C108.676 30.9362 107.938 31.1367 107.104 31.1367C106.279 31.1367 105.543 30.9385 104.896 30.542C104.248 30.1455 103.747 29.5804 103.392 28.8467C103.036 28.1084 102.856 27.2607 102.852 26.3037V25.8115C102.852 24.8317 103.027 23.9704 103.378 23.2275C103.733 22.4801 104.232 21.9082 104.875 21.5117C105.522 21.1107 106.26 20.9102 107.09 20.9102C107.919 20.9102 108.655 21.1107 109.298 21.5117C109.945 21.9082 110.444 22.4801 110.795 23.2275C111.15 23.9704 111.328 24.8294 111.328 25.8047V26.249ZM109.25 25.7979C109.25 24.7542 109.063 23.9613 108.689 23.4189C108.316 22.8766 107.783 22.6055 107.09 22.6055C106.402 22.6055 105.871 22.8743 105.497 23.4121C105.123 23.9453 104.934 24.7292 104.93 25.7637V26.249C104.93 27.2653 105.117 28.0537 105.49 28.6143C105.864 29.1748 106.402 29.4551 107.104 29.4551C107.792 29.4551 108.32 29.1862 108.689 28.6484C109.059 28.1061 109.245 27.3177 109.25 26.2832V25.7979ZM117.419 31V27.4111H115.751L113.953 31H111.738L113.864 26.7549C112.839 26.1898 112.326 25.3125 112.326 24.123C112.326 23.1478 112.645 22.3936 113.283 21.8604C113.921 21.3271 114.812 21.056 115.956 21.0469H119.477V31H117.419ZM114.377 24.2734C114.377 24.8294 114.511 25.2327 114.78 25.4834C115.054 25.734 115.462 25.8594 116.004 25.8594H117.419V22.708H116.004C114.919 22.708 114.377 23.2298 114.377 24.2734ZM130.503 21.9355H130.626C131.405 21.9355 132.109 22.1087 132.738 22.4551C133.372 22.7969 133.864 23.2845 134.215 23.918C134.566 24.5514 134.741 25.2715 134.741 26.0781C134.741 27.2721 134.358 28.2474 133.593 29.0039C132.832 29.7604 131.802 30.1387 130.503 30.1387V31.4102H128.527V30.1387H128.397C127.609 30.1387 126.898 29.9701 126.265 29.6328C125.631 29.291 125.139 28.8125 124.788 28.1973C124.442 27.582 124.269 26.8802 124.269 26.0918C124.269 25.2943 124.442 24.5811 124.788 23.9521C125.134 23.3232 125.62 22.8333 126.244 22.4824C126.868 22.127 127.566 21.9447 128.336 21.9355H128.527V20.6367H130.503V21.9355ZM128.397 23.6377C127.718 23.6377 127.183 23.8519 126.791 24.2803C126.404 24.7087 126.21 25.3125 126.21 26.0918C126.21 26.821 126.404 27.3952 126.791 27.8145C127.178 28.2292 127.723 28.4365 128.425 28.4365H128.527V23.6377H128.397ZM130.503 23.6377V28.4365H130.64C131.31 28.4365 131.836 28.2269 132.219 27.8076C132.606 27.3838 132.8 26.8073 132.8 26.0781C132.8 25.3171 132.611 24.7201 132.232 24.2871C131.854 23.8542 131.312 23.6377 130.605 23.6377H130.503ZM142.076 26.6865H138.139V29.3525H142.76V31H136.088V21.0469H142.746V22.708H138.139V25.0801H142.076V26.6865ZM146.014 27.4932V31H143.963V21.0469H147.846C148.593 21.0469 149.249 21.1836 149.814 21.457C150.384 21.7305 150.822 22.1201 151.127 22.626C151.432 23.1273 151.585 23.6992 151.585 24.3418C151.585 25.3171 151.25 26.0872 150.58 26.6523C149.915 27.2129 148.992 27.4932 147.812 27.4932H146.014ZM146.014 25.832H147.846C148.388 25.832 148.8 25.7044 149.083 25.4492C149.37 25.194 149.514 24.8294 149.514 24.3555C149.514 23.8678 149.37 23.4736 149.083 23.1729C148.796 22.8721 148.399 22.7171 147.894 22.708H146.014V25.832ZM155.68 21.0469L158.236 28.2656L160.779 21.0469H163.473V31H161.415V28.2793L161.62 23.583L158.934 31H157.525L154.846 23.5898L155.051 28.2793V31H153V21.0469H155.68ZM171.006 28.9492H167.41L166.727 31H164.546L168.251 21.0469H170.151L173.877 31H171.696L171.006 28.9492ZM167.964 27.2881H170.452L169.201 23.5625L167.964 27.2881Z" fill="white"/>
<path d="M70.4161 25.1746C70.4113 25.1058 70.4361 25.0379 70.485 24.9861L72.6963 22.6409C72.7451 22.5891 72.8141 22.5575 72.888 22.553C72.9622 22.5486 73.0347 22.5717 73.0902 22.6172C74.1063 23.4499 74.9497 24.4318 75.5971 25.5357C75.6326 25.5963 75.6409 25.6675 75.6201 25.7337C75.5993 25.7999 75.5511 25.8557 75.4861 25.8888L72.5471 27.3864C72.5046 27.4081 72.4587 27.4184 72.4134 27.4184C72.3147 27.4184 72.219 27.3694 72.1683 27.283C71.7404 26.5533 71.1825 25.9041 70.5104 25.3533C70.4547 25.3078 70.4208 25.2435 70.4161 25.1746Z" fill="#F2AE4B"/>
<path d="M69.4293 24.3057C69.3792 24.3938 69.2825 24.444 69.1825 24.444C69.1384 24.444 69.0936 24.4342 69.052 24.4136C68.2642 24.0242 67.4167 23.77 66.5331 23.6583C66.3803 23.639 66.2733 23.5079 66.294 23.3654L66.7442 20.2714C66.7649 20.129 66.9059 20.0293 67.0583 20.0485C68.4002 20.2182 69.687 20.604 70.883 21.1954C71.0192 21.2627 71.071 21.4202 70.9988 21.5471L69.4293 24.3057Z" fill="#F2AE4B"/>
<path d="M73.0245 28.4929L76.2571 27.6753C76.3285 27.6573 76.4048 27.6664 76.469 27.7007C76.5332 27.735 76.5801 27.7917 76.5996 27.8583C76.8652 28.7714 77 29.7179 77 30.6713C77 30.8344 76.9958 30.9981 76.9871 31.1717C76.9802 31.3112 76.8568 31.4198 76.7085 31.4198C76.7042 31.4198 76.6997 31.4198 76.6954 31.4196L73.3495 31.2755C73.2755 31.2723 73.2059 31.2418 73.1561 31.1909C73.1062 31.1399 73.0801 31.0724 73.0836 31.0035C73.0894 30.8865 73.0922 30.7778 73.0922 30.6713C73.0922 30.04 73.0033 29.4145 72.8281 28.8122C72.7878 28.6735 72.8757 28.5306 73.0245 28.4929Z" fill="#F2AE4B"/>
<path d="M60.5118 21.0098C61.7299 20.4624 63.0313 20.1231 64.3799 20.0013C64.454 19.9944 64.5271 20.0156 64.5843 20.0594C64.6414 20.1033 64.6775 20.1665 64.6847 20.2352L65.0076 23.3431C65.0225 23.4862 64.9101 23.6134 64.7567 23.6272C63.8678 23.7075 63.0105 23.9309 62.2086 24.2912C62.1705 24.3084 62.1291 24.3171 62.0874 24.3171C62.0564 24.3171 62.0253 24.3122 61.9954 24.3025C61.9255 24.2798 61.8682 24.232 61.836 24.1699L60.3816 21.3571C60.3146 21.2277 60.3729 21.0721 60.5118 21.0098Z" fill="#F2AE4B"/>
<path d="M55.5923 25.3746C55.5743 25.3076 55.5854 25.2368 55.6234 25.1775C56.3161 24.0973 57.1993 23.1462 58.2484 22.3508C58.3059 22.3073 58.3792 22.2869 58.4531 22.2938C58.5267 22.3009 58.5943 22.3349 58.641 22.3885L60.7545 24.8108C60.8011 24.8644 60.8232 24.933 60.8155 25.0017C60.808 25.0703 60.7715 25.1333 60.714 25.1769C60.0199 25.7031 59.4357 26.3322 58.9775 27.0466C58.9252 27.1281 58.8327 27.1734 58.7377 27.1734C58.6889 27.1734 58.6396 27.1615 58.5947 27.1365L55.7197 25.5344C55.6563 25.499 55.6104 25.4415 55.5923 25.3746Z" fill="#F2AE4B"/>
<path d="M54.5245 27.4628C54.5706 27.3256 54.7273 27.2492 54.8743 27.2923L58.0705 28.2259C58.2176 28.2688 58.2995 28.4148 58.2534 28.5519C58.024 29.2346 57.9077 29.9476 57.9077 30.6712C57.9077 30.7778 57.9105 30.8865 57.9163 31.0035C57.9198 31.0724 57.8937 31.1398 57.8438 31.1908C57.7939 31.2418 57.7244 31.2723 57.6504 31.2754L54.3045 31.4195C54.3001 31.4197 54.2958 31.4198 54.2914 31.4198C54.1432 31.4198 54.0198 31.3111 54.0128 31.1717C54.0042 30.9981 53.9999 30.8344 53.9999 30.6712C54 29.5777 54.1764 28.4982 54.5245 27.4628Z" fill="#F2AE4B"/>
<path d="M65.5098 30.1188C65.5579 30.1188 65.6058 30.1203 65.6535 30.1227L70.1877 27.6288C70.2986 27.5677 70.4395 27.583 70.5325 27.6661C70.6255 27.7492 70.6479 27.8798 70.5872 27.9856L68.1138 32.3073C68.1229 32.3905 68.1277 32.4745 68.1277 32.5593C68.1277 33.2112 67.8554 33.8241 67.361 34.285C66.8665 34.746 66.209 34.9999 65.5097 34.9999C64.8104 34.9999 64.153 34.7459 63.6585 34.285C63.164 33.8241 62.8918 33.2112 62.8918 32.5593C62.8918 31.9074 63.1641 31.2946 63.6585 30.8336C64.153 30.3727 64.8105 30.1188 65.5098 30.1188Z" fill="#F2AE4B"/>
<defs>
<filter id="filter0_d_2_32" x="0" y="0" width="232.941" height="68" filterUnits="userSpaceOnUse" color-interpolation-filters="sRGB">
<feFlood flood-opacity="0" result="BackgroundImageFix"/>
<feColorMatrix in="SourceAlpha" type="matrix" values="0 0 0 0 0 0 0 0 0 0 0 0 0 0 0 0 0 0 127 0" result="hardAlpha"/>
<feOffset dy="8"/>
<feGaussianBlur stdDeviation="5"/>
<feColorMatrix type="matrix" values="0 0 0 0 0.2346 0 0 0 0 0.330692 0 0 0 0 0.46 0 0 0 0.15 0"/>
<feBlend mode="normal" in2="BackgroundImageFix" result="effect1_dropShadow_2_32"/>
<feBlend mode="normal" in="SourceGraphic" in2="effect1_dropShadow_2_32" result="shape"/>
</filter>
<linearGradient id="paint0_linear_2_32" x1="222.941" y1="26" x2="11.5375" y2="26" gradientUnits="userSpaceOnUse">
<stop stop-color="#162970"/>
<stop offset="1" stop-color="#255390"/>
</linearGradient>
</defs>
</svg>
