<svg width="148" height="90" viewBox="0 0 148 90" fill="none" xmlns="http://www.w3.org/2000/svg">
<rect x="7" y="32.1799" width="6" height="6" rx="3" fill="#2F80ED"/>
<rect x="7" y="54.1799" width="6" height="6" rx="3" fill="#27AE60"/>
<rect x="7" y="76.1799" width="6" height="6" rx="3" fill="#F2994A"/>
<path d="M25.1191 35.7288H23.1152V39.1799H21.9844V30.6487H24.8086C25.7695 30.6487 26.5078 30.8674 27.0234 31.3049C27.543 31.7424 27.8027 32.3792 27.8027 33.2151C27.8027 33.7463 27.6582 34.2092 27.3691 34.6038C27.084 34.9983 26.6855 35.2932 26.1738 35.4885L28.1777 39.1096V39.1799H26.9707L25.1191 35.7288ZM23.1152 34.8088H24.8438C25.4023 34.8088 25.8457 34.6643 26.1738 34.3752C26.5059 34.0862 26.6719 33.6995 26.6719 33.2151C26.6719 32.6877 26.5137 32.2834 26.1973 32.0022C25.8848 31.7209 25.4316 31.5784 24.8379 31.5745H23.1152V34.8088ZM31.8457 39.2971C30.9863 39.2971 30.2871 39.0159 29.748 38.4534C29.209 37.887 28.9395 37.1311 28.9395 36.1858V35.9866C28.9395 35.3577 29.0586 34.7971 29.2969 34.3049C29.5391 33.8088 29.875 33.4221 30.3047 33.1448C30.7383 32.8635 31.207 32.7229 31.7109 32.7229C32.5352 32.7229 33.1758 32.9944 33.6328 33.5374C34.0898 34.0803 34.3184 34.8577 34.3184 35.8694V36.3206H30.0234C30.0391 36.9456 30.2207 37.4514 30.5684 37.8381C30.9199 38.2209 31.3652 38.4124 31.9043 38.4124C32.2871 38.4124 32.6113 38.3342 32.877 38.178C33.1426 38.0217 33.375 37.8147 33.5742 37.5569L34.2363 38.0725C33.7051 38.8889 32.9082 39.2971 31.8457 39.2971ZM31.7109 33.6135C31.2734 33.6135 30.9062 33.7737 30.6094 34.094C30.3125 34.4104 30.1289 34.8557 30.0586 35.4299H33.2344V35.3479C33.2031 34.7971 33.0547 34.3713 32.7891 34.0706C32.5234 33.7659 32.1641 33.6135 31.7109 33.6135ZM41.1914 37.6858L42.4102 32.8401H43.4941L41.6484 39.1799H40.7695L39.2285 34.3752L37.7285 39.1799H36.8496L35.0098 32.8401H36.0879L37.3359 37.5862L38.8125 32.8401H39.6855L41.1914 37.6858ZM48.5156 39.1799C48.4531 39.0549 48.4023 38.8323 48.3633 38.512C47.8594 39.0354 47.2578 39.2971 46.5586 39.2971C45.9336 39.2971 45.4199 39.1213 45.0176 38.7698C44.6191 38.4143 44.4199 37.9651 44.4199 37.4221C44.4199 36.762 44.6699 36.2502 45.1699 35.887C45.6738 35.5198 46.3809 35.3362 47.291 35.3362H48.3457V34.8381C48.3457 34.4592 48.2324 34.1584 48.0059 33.9358C47.7793 33.7092 47.4453 33.5959 47.0039 33.5959C46.6172 33.5959 46.293 33.6936 46.0312 33.8889C45.7695 34.0842 45.6387 34.3206 45.6387 34.5979H44.5488C44.5488 34.2815 44.6602 33.9768 44.8828 33.6838C45.1094 33.387 45.4141 33.1526 45.7969 32.9807C46.1836 32.8088 46.6074 32.7229 47.0684 32.7229C47.7988 32.7229 48.3711 32.9065 48.7852 33.2737C49.1992 33.637 49.4141 34.1389 49.4297 34.7795V37.6975C49.4297 38.2795 49.5039 38.7424 49.6523 39.0862V39.1799H48.5156ZM46.7168 38.3538C47.0566 38.3538 47.3789 38.2659 47.6836 38.0901C47.9883 37.9143 48.209 37.6858 48.3457 37.4045V36.1038H47.4961C46.168 36.1038 45.5039 36.4924 45.5039 37.2698C45.5039 37.6096 45.6172 37.8752 45.8438 38.0667C46.0703 38.2581 46.3613 38.3538 46.7168 38.3538ZM54.1934 33.8127C54.0293 33.7854 53.8516 33.7717 53.6602 33.7717C52.9492 33.7717 52.4668 34.0745 52.2129 34.6799V39.1799H51.1289V32.8401H52.1836L52.2012 33.5725C52.5566 33.0061 53.0605 32.7229 53.7129 32.7229C53.9238 32.7229 54.084 32.7502 54.1934 32.8049V33.8127ZM54.8145 35.9573C54.8145 34.9846 55.0449 34.2034 55.5059 33.6135C55.9668 33.0198 56.5703 32.7229 57.3164 32.7229C58.0586 32.7229 58.6465 32.9768 59.0801 33.4846V30.1799H60.1641V39.1799H59.168L59.1152 38.5002C58.6816 39.0315 58.0781 39.2971 57.3047 39.2971C56.5703 39.2971 55.9707 38.9963 55.5059 38.3948C55.0449 37.7932 54.8145 37.0081 54.8145 36.0393V35.9573ZM55.8984 36.0803C55.8984 36.7991 56.0469 37.3616 56.3438 37.7678C56.6406 38.1741 57.0508 38.3772 57.5742 38.3772C58.2617 38.3772 58.7637 38.0686 59.0801 37.4514V34.5393C58.7559 33.9417 58.2578 33.6428 57.5859 33.6428C57.0547 33.6428 56.6406 33.8479 56.3438 34.2581C56.0469 34.6682 55.8984 35.2756 55.8984 36.0803ZM61.8164 38.6116C61.8164 38.4241 61.8711 38.2678 61.9805 38.1428C62.0937 38.0178 62.2617 37.9553 62.4844 37.9553C62.707 37.9553 62.875 38.0178 62.9883 38.1428C63.1055 38.2678 63.1641 38.4241 63.1641 38.6116C63.1641 38.7913 63.1055 38.9417 62.9883 39.0627C62.875 39.1838 62.707 39.2444 62.4844 39.2444C62.2617 39.2444 62.0937 39.1838 61.9805 39.0627C61.8711 38.9417 61.8164 38.7913 61.8164 38.6116ZM61.8223 33.4377C61.8223 33.2502 61.877 33.094 61.9863 32.969C62.0996 32.844 62.2676 32.7815 62.4902 32.7815C62.7129 32.7815 62.8809 32.844 62.9941 32.969C63.1113 33.094 63.1699 33.2502 63.1699 33.4377C63.1699 33.6174 63.1113 33.7678 62.9941 33.8889C62.8809 34.01 62.7129 34.0706 62.4902 34.0706C62.2676 34.0706 62.0996 34.01 61.9863 33.8889C61.877 33.7678 61.8223 33.6174 61.8223 33.4377Z" fill="#828282"/>
<path d="M74.0811 39.1799H67.8667V38.1199L70.9453 34.762C71.3896 34.2668 71.7049 33.8542 71.8911 33.5242C72.0815 33.1899 72.1768 32.8556 72.1768 32.5212C72.1768 32.0811 72.0519 31.7257 71.8022 31.4548C71.5568 31.184 71.2246 31.0486 70.8057 31.0486C70.3063 31.0486 69.9191 31.2009 69.644 31.5056C69.369 31.8103 69.2314 32.2271 69.2314 32.7561H67.689C67.689 32.1933 67.8159 31.6876 68.0698 31.239C68.328 30.7862 68.694 30.435 69.168 30.1853C69.6462 29.9356 70.1963 29.8108 70.8184 29.8108C71.7155 29.8108 72.4222 30.0372 72.9385 30.49C73.459 30.9386 73.7192 31.5606 73.7192 32.3562C73.7192 32.8175 73.5881 33.302 73.3257 33.8098C73.0675 34.3134 72.6423 34.8868 72.0498 35.53L69.79 37.9485H74.0811V39.1799ZM75.668 34.5969L76.1694 29.9377H81.1333V31.2708H77.4517L77.1978 33.4797C77.6252 33.2343 78.1076 33.1116 78.645 33.1116C79.5252 33.1116 80.2087 33.393 80.6953 33.9558C81.1862 34.5186 81.4316 35.2761 81.4316 36.2283C81.4316 37.1677 81.1608 37.9167 80.6191 38.4753C80.0775 39.0297 79.3348 39.3069 78.3911 39.3069C77.5448 39.3069 76.8423 39.0678 76.2837 38.5896C75.7293 38.1072 75.4289 37.4724 75.3823 36.6853H76.874C76.9333 37.1339 77.0941 37.4788 77.3564 37.72C77.6188 37.9569 77.9616 38.0754 78.3848 38.0754C78.8587 38.0754 79.2269 37.9062 79.4893 37.5676C79.7559 37.2291 79.8892 36.7678 79.8892 36.1838C79.8892 35.621 79.7432 35.1767 79.4512 34.8508C79.1592 34.5208 78.7572 34.3557 78.2451 34.3557C77.9658 34.3557 77.7288 34.3938 77.5342 34.47C77.3395 34.5419 77.1279 34.6858 76.8994 34.9016L75.668 34.5969ZM88.668 35.2888C88.668 36.6176 88.4183 37.6205 87.9189 38.2976C87.4238 38.9705 86.6685 39.3069 85.6528 39.3069C84.6541 39.3069 83.9009 38.9789 83.3931 38.323C82.8895 37.6628 82.6313 36.6874 82.6187 35.3967V33.7971C82.6187 32.4683 82.8662 31.4718 83.3613 30.8074C83.8607 30.143 84.6203 29.8108 85.6401 29.8108C86.6515 29.8108 87.4048 30.1345 87.8999 30.782C88.3993 31.4294 88.6553 32.3985 88.668 33.6892V35.2888ZM87.1255 33.5623C87.1255 32.6947 87.007 32.06 86.77 31.658C86.533 31.2517 86.1564 31.0486 85.6401 31.0486C85.1366 31.0486 84.7663 31.2411 84.5293 31.6262C84.2923 32.0071 84.1675 32.6038 84.1548 33.4163V35.511C84.1548 36.3743 84.2754 37.0175 84.5166 37.4407C84.7578 37.8639 85.1366 38.0754 85.6528 38.0754C86.1479 38.0754 86.514 37.8808 86.751 37.4915C86.988 37.0979 87.1128 36.4843 87.1255 35.6506V33.5623ZM91.0928 37.5549C91.3805 37.5549 91.6027 37.6375 91.7593 37.8025C91.9159 37.9633 91.9941 38.1664 91.9941 38.4119C91.9941 38.6531 91.9159 38.8541 91.7593 39.0149C91.6027 39.1715 91.3805 39.2498 91.0928 39.2498C90.8177 39.2498 90.5998 39.1715 90.439 39.0149C90.2782 38.8583 90.1978 38.6573 90.1978 38.4119C90.1978 38.1664 90.276 37.9633 90.4326 37.8025C90.5892 37.6375 90.8092 37.5549 91.0928 37.5549ZM99.6875 35.2888C99.6875 36.6176 99.4378 37.6205 98.9385 38.2976C98.4434 38.9705 97.688 39.3069 96.6724 39.3069C95.6737 39.3069 94.9204 38.9789 94.4126 38.323C93.909 37.6628 93.6509 36.6874 93.6382 35.3967V33.7971C93.6382 32.4683 93.8857 31.4718 94.3809 30.8074C94.8802 30.143 95.6398 29.8108 96.6597 29.8108C97.6711 29.8108 98.4243 30.1345 98.9194 30.782C99.4188 31.4294 99.6748 32.3985 99.6875 33.6892V35.2888ZM98.145 33.5623C98.145 32.6947 98.0265 32.06 97.7896 31.658C97.5526 31.2517 97.1759 31.0486 96.6597 31.0486C96.1561 31.0486 95.7858 31.2411 95.5488 31.6262C95.3118 32.0071 95.187 32.6038 95.1743 33.4163V35.511C95.1743 36.3743 95.2949 37.0175 95.5361 37.4407C95.7773 37.8639 96.1561 38.0754 96.6724 38.0754C97.1675 38.0754 97.5335 37.8808 97.7705 37.4915C98.0075 37.0979 98.1323 36.4843 98.145 35.6506V33.5623ZM107.076 35.2888C107.076 36.6176 106.826 37.6205 106.327 38.2976C105.832 38.9705 105.077 39.3069 104.061 39.3069C103.062 39.3069 102.309 38.9789 101.801 38.323C101.298 37.6628 101.04 36.6874 101.027 35.3967V33.7971C101.027 32.4683 101.274 31.4718 101.77 30.8074C102.269 30.143 103.028 29.8108 104.048 29.8108C105.06 29.8108 105.813 30.1345 106.308 30.782C106.807 31.4294 107.063 32.3985 107.076 33.6892V35.2888ZM105.534 33.5623C105.534 32.6947 105.415 32.06 105.178 31.658C104.941 31.2517 104.565 31.0486 104.048 31.0486C103.545 31.0486 103.174 31.2411 102.938 31.6262C102.701 32.0071 102.576 32.6038 102.563 33.4163V35.511C102.563 36.3743 102.684 37.0175 102.925 37.4407C103.166 37.8639 103.545 38.0754 104.061 38.0754C104.556 38.0754 104.922 37.8808 105.159 37.4915C105.396 37.0979 105.521 36.4843 105.534 35.6506V33.5623ZM118.686 29.9377V36.114C118.686 37.0958 118.371 37.8744 117.74 38.45C117.114 39.0212 116.278 39.3069 115.233 39.3069C114.175 39.3069 113.335 39.0255 112.713 38.4626C112.091 37.8956 111.78 37.1106 111.78 36.1077V29.9377H113.379V36.1204C113.379 36.7382 113.536 37.21 113.849 37.5359C114.162 37.8617 114.624 38.0247 115.233 38.0247C116.469 38.0247 117.086 37.373 117.086 36.0696V29.9377H118.686ZM125.237 36.7996C125.237 36.3933 125.093 36.0802 124.805 35.8601C124.522 35.6401 124.007 35.4179 123.263 35.1936C122.518 34.9693 121.925 34.7196 121.485 34.4446C120.643 33.9156 120.222 33.2258 120.222 32.3752C120.222 31.6305 120.525 31.0168 121.13 30.5344C121.739 30.052 122.528 29.8108 123.498 29.8108C124.141 29.8108 124.714 29.9293 125.218 30.1663C125.721 30.4032 126.117 30.7418 126.405 31.1819C126.693 31.6178 126.836 32.1023 126.836 32.6355H125.237C125.237 32.1531 125.084 31.7764 124.78 31.5056C124.479 31.2305 124.048 31.093 123.485 31.093C122.96 31.093 122.552 31.2052 122.26 31.4294C121.972 31.6537 121.828 31.9669 121.828 32.3689C121.828 32.7074 121.985 32.991 122.298 33.2195C122.611 33.4438 123.127 33.6638 123.847 33.8796C124.566 34.0912 125.144 34.3346 125.58 34.6096C126.015 34.8805 126.335 35.1936 126.538 35.5491C126.741 35.9003 126.843 36.3129 126.843 36.7869C126.843 37.557 126.547 38.1707 125.954 38.6277C125.366 39.0805 124.566 39.3069 123.555 39.3069C122.886 39.3069 122.27 39.1842 121.708 38.9387C121.149 38.689 120.713 38.3463 120.4 37.9104C120.091 37.4745 119.937 36.9667 119.937 36.387H121.542C121.542 36.9117 121.716 37.318 122.063 37.6057C122.41 37.8935 122.907 38.0374 123.555 38.0374C124.113 38.0374 124.532 37.9252 124.812 37.7009C125.095 37.4724 125.237 37.172 125.237 36.7996ZM128.252 39.1799V29.9377H130.981C131.798 29.9377 132.522 30.1197 133.152 30.4836C133.787 30.8476 134.278 31.3639 134.625 32.0325C134.972 32.7011 135.146 33.467 135.146 34.3303V34.7937C135.146 35.6697 134.97 36.4399 134.619 37.1042C134.272 37.7686 133.774 38.2807 133.127 38.6404C132.484 39.0001 131.745 39.1799 130.912 39.1799H128.252ZM129.858 31.2327V37.8977H130.905C131.747 37.8977 132.393 37.6353 132.841 37.1106C133.294 36.5816 133.525 35.8241 133.533 34.8381V34.324C133.533 33.321 133.315 32.5551 132.879 32.0261C132.444 31.4972 131.811 31.2327 130.981 31.2327H129.858Z" fill="#4F4F4F"/>
<path d="M27.7441 10.5413C27.7441 11.8108 27.5273 12.7542 27.0938 13.3713C26.6602 13.9885 25.9824 14.2971 25.0605 14.2971C24.1504 14.2971 23.4766 13.9963 23.0391 13.3948C22.6016 12.7893 22.375 11.887 22.3594 10.6877V9.24048C22.3594 7.98657 22.5762 7.05493 23.0098 6.44556C23.4434 5.83618 24.123 5.53149 25.0488 5.53149C25.9668 5.53149 26.6426 5.82642 27.0762 6.41626C27.5098 7.0022 27.7324 7.90845 27.7441 9.13501V10.5413ZM26.6602 9.05884C26.6602 8.14087 26.5312 7.4729 26.2734 7.05493C26.0156 6.63306 25.6074 6.42212 25.0488 6.42212C24.4941 6.42212 24.0898 6.6311 23.8359 7.04907C23.582 7.46704 23.4512 8.10962 23.4434 8.97681V10.7112C23.4434 11.6331 23.5762 12.3147 23.8418 12.7561C24.1113 13.1936 24.5176 13.4124 25.0605 13.4124C25.5957 13.4124 25.9922 13.2053 26.25 12.7913C26.5117 12.3772 26.6484 11.7249 26.6602 10.8342V9.05884ZM32.6953 14.1799H31.6055V6.95532L29.4199 7.75806V6.77368L32.5254 5.60767H32.6953V14.1799ZM40.582 5.64868L43.3711 12.6096L46.1602 5.64868H47.6191V14.1799H46.4941V10.8577L46.5996 7.27173L43.7988 14.1799H42.9375L40.1426 7.28931L40.2539 10.8577V14.1799H39.1289V5.64868H40.582ZM54.4219 11.9534H50.8477L50.0449 14.1799H48.8848L52.1426 5.64868H53.127L56.3906 14.1799H55.2363L54.4219 11.9534ZM51.1875 11.0276H54.0879L52.6348 7.03735L51.1875 11.0276ZM60.668 10.7288H58.6641V14.1799H57.5332V5.64868H60.3574C61.3184 5.64868 62.0566 5.86743 62.5723 6.30493C63.0918 6.74243 63.3516 7.37915 63.3516 8.21509C63.3516 8.74634 63.207 9.20923 62.918 9.60376C62.6328 9.99829 62.2344 10.2932 61.7227 10.4885L63.7266 14.1096V14.1799H62.5195L60.668 10.7288ZM58.6641 9.80884H60.3926C60.9512 9.80884 61.3945 9.66431 61.7227 9.37524C62.0547 9.08618 62.2207 8.69946 62.2207 8.21509C62.2207 7.68774 62.0625 7.28345 61.7461 7.0022C61.4336 6.72095 60.9805 6.57837 60.3867 6.57446H58.6641V9.80884ZM71.209 11.4729C71.1035 12.3752 70.7695 13.0725 70.207 13.5647C69.6484 14.053 68.9043 14.2971 67.9746 14.2971C66.9668 14.2971 66.1582 13.9358 65.5488 13.2131C64.9434 12.4905 64.6406 11.5237 64.6406 10.3127V9.49243C64.6406 8.69946 64.7812 8.0022 65.0625 7.40063C65.3477 6.79907 65.75 6.33813 66.2695 6.01782C66.7891 5.6936 67.3906 5.53149 68.0742 5.53149C68.9805 5.53149 69.707 5.7854 70.2539 6.29321C70.8008 6.79712 71.1191 7.49634 71.209 8.39087H70.0781C69.9805 7.71118 69.7676 7.21899 69.4395 6.91431C69.1152 6.60962 68.6602 6.45728 68.0742 6.45728C67.3555 6.45728 66.791 6.7229 66.3809 7.25415C65.9746 7.7854 65.7715 8.54126 65.7715 9.52173V10.3479C65.7715 11.2737 65.9648 12.01 66.3516 12.5569C66.7383 13.1038 67.2793 13.3772 67.9746 13.3772C68.5996 13.3772 69.0781 13.2366 69.4102 12.9553C69.7461 12.6702 69.9688 12.176 70.0781 11.4729H71.209ZM79.3066 14.1799H78.1758V10.2366H73.875V14.1799H72.75V5.64868H73.875V9.31665H78.1758V5.64868H79.3066V14.1799Z" fill="#4F4F4F"/>
<path d="M15.7717 5.98466C15.6196 5.82915 15.4392 5.75139 15.2309 5.75139H14.4617V5.16208C14.4617 4.89204 14.3675 4.66082 14.1792 4.46848C13.9908 4.27614 13.7646 4.17993 13.5001 4.17993H13.1156C12.8511 4.17993 12.6247 4.27614 12.4364 4.4685C12.2481 4.66082 12.1539 4.89207 12.1539 5.1621V5.75141H9.8463V5.1621C9.8463 4.89207 9.75211 4.66084 9.56379 4.4685C9.3755 4.27614 9.14914 4.17993 8.88466 4.17993H8.50007C8.23566 4.17993 8.00927 4.27614 7.82095 4.4685C7.63267 4.66082 7.53845 4.89207 7.53845 5.1621V5.75141H6.76928C6.56089 5.75141 6.38063 5.82917 6.22838 5.98468C6.07613 6.14017 6 6.32438 6 6.53716V14.3943C6 14.6069 6.07613 14.7911 6.22838 14.9467C6.38061 15.1021 6.56087 15.1799 6.76928 15.1799H15.2307C15.4391 15.1799 15.6195 15.1022 15.7716 14.9467C15.9238 14.7912 16 14.6069 16 14.3943V6.53714C16 6.32429 15.9239 6.14017 15.7717 5.98466ZM12.9232 5.16217C12.9232 5.10483 12.9411 5.05772 12.9771 5.02098C13.0131 4.98419 13.0592 4.96577 13.1154 4.96577H13.4999C13.5561 4.96577 13.6021 4.98413 13.6382 5.02098C13.6743 5.05779 13.6923 5.10489 13.6923 5.16217V6.92996C13.6923 6.98728 13.6743 7.0343 13.6382 7.07115C13.6021 7.10789 13.5561 7.12636 13.4999 7.12636H13.1154C13.0592 7.12636 13.0131 7.10798 12.9771 7.07115C12.9411 7.03428 12.9232 6.98728 12.9232 6.92996V5.16217ZM8.30779 5.16217C8.30779 5.10483 8.32579 5.05772 8.36185 5.02098C8.39792 4.98419 8.44396 4.96577 8.50007 4.96577H8.88466C8.9408 4.96577 8.98692 4.98413 9.02289 5.02098C9.0589 5.05779 9.07698 5.10489 9.07698 5.16217V6.92996C9.07698 6.98728 9.05899 7.03436 9.02289 7.07115C8.98683 7.10789 8.9408 7.12636 8.88466 7.12636H8.50007C8.44396 7.12636 8.39786 7.10798 8.36185 7.07115C8.32587 7.03428 8.30779 6.98728 8.30779 6.92996V5.16217ZM15.2307 14.3942H6.76928V8.10853H15.2307V14.3942Z" fill="#4F4F4F"/>
<path d="M21.9902 61.1799V52.6487H24.7793C25.7051 52.6487 26.4004 52.8401 26.8652 53.2229C27.334 53.6057 27.5684 54.1721 27.5684 54.9221C27.5684 55.3206 27.4551 55.6741 27.2285 55.9827C27.002 56.2874 26.6934 56.5237 26.3027 56.6917C26.7637 56.8206 27.127 57.0667 27.3926 57.4299C27.6621 57.7893 27.7969 58.219 27.7969 58.719C27.7969 59.4846 27.5488 60.0862 27.0527 60.5237C26.5566 60.9612 25.8555 61.1799 24.9492 61.1799H21.9902ZM23.1152 57.1897V60.26H24.9727C25.4961 60.26 25.9082 60.1252 26.209 59.8557C26.5137 59.5823 26.666 59.2073 26.666 58.7307C26.666 57.7034 26.1074 57.1897 24.9902 57.1897H23.1152ZM23.1152 56.2874H24.8145C25.3066 56.2874 25.6992 56.1643 25.9922 55.9182C26.2891 55.6721 26.4375 55.3381 26.4375 54.9163C26.4375 54.4475 26.3008 54.1077 26.0273 53.8967C25.7539 53.6819 25.3379 53.5745 24.7793 53.5745H23.1152V56.2874ZM33.2109 61.1799C33.1484 61.0549 33.0977 60.8323 33.0586 60.512C32.5547 61.0354 31.9531 61.2971 31.2539 61.2971C30.6289 61.2971 30.1152 61.1213 29.7129 60.7698C29.3145 60.4143 29.1152 59.9651 29.1152 59.4221C29.1152 58.762 29.3652 58.2502 29.8652 57.887C30.3691 57.5198 31.0762 57.3362 31.9863 57.3362H33.041V56.8381C33.041 56.4592 32.9277 56.1584 32.7012 55.9358C32.4746 55.7092 32.1406 55.5959 31.6992 55.5959C31.3125 55.5959 30.9883 55.6936 30.7266 55.8889C30.4648 56.0842 30.334 56.3206 30.334 56.5979H29.2441C29.2441 56.2815 29.3555 55.9768 29.5781 55.6838C29.8047 55.387 30.1094 55.1526 30.4922 54.9807C30.8789 54.8088 31.3027 54.7229 31.7637 54.7229C32.4941 54.7229 33.0664 54.9065 33.4805 55.2737C33.8945 55.637 34.1094 56.1389 34.125 56.7795V59.6975C34.125 60.2795 34.1992 60.7424 34.3477 61.0862V61.1799H33.2109ZM31.4121 60.3538C31.752 60.3538 32.0742 60.2659 32.3789 60.0901C32.6836 59.9143 32.9043 59.6858 33.041 59.4045V58.1038H32.1914C30.8633 58.1038 30.1992 58.4924 30.1992 59.2698C30.1992 59.6096 30.3125 59.8752 30.5391 60.0667C30.7656 60.2581 31.0566 60.3538 31.4121 60.3538ZM37.002 61.1799H35.918V52.1799H37.002V61.1799ZM42.6562 61.1799C42.5937 61.0549 42.543 60.8323 42.5039 60.512C42 61.0354 41.3984 61.2971 40.6992 61.2971C40.0742 61.2971 39.5605 61.1213 39.1582 60.7698C38.7598 60.4143 38.5605 59.9651 38.5605 59.4221C38.5605 58.762 38.8105 58.2502 39.3105 57.887C39.8145 57.5198 40.5215 57.3362 41.4316 57.3362H42.4863V56.8381C42.4863 56.4592 42.373 56.1584 42.1465 55.9358C41.9199 55.7092 41.5859 55.5959 41.1445 55.5959C40.7578 55.5959 40.4336 55.6936 40.1719 55.8889C39.9102 56.0842 39.7793 56.3206 39.7793 56.5979H38.6895C38.6895 56.2815 38.8008 55.9768 39.0234 55.6838C39.25 55.387 39.5547 55.1526 39.9375 54.9807C40.3242 54.8088 40.748 54.7229 41.209 54.7229C41.9395 54.7229 42.5117 54.9065 42.9258 55.2737C43.3398 55.637 43.5547 56.1389 43.5703 56.7795V59.6975C43.5703 60.2795 43.6445 60.7424 43.793 61.0862V61.1799H42.6562ZM40.8574 60.3538C41.1973 60.3538 41.5195 60.2659 41.8242 60.0901C42.1289 59.9143 42.3496 59.6858 42.4863 59.4045V58.1038H41.6367C40.3086 58.1038 39.6445 58.4924 39.6445 59.2698C39.6445 59.6096 39.7578 59.8752 39.9844 60.0667C40.2109 60.2581 40.502 60.3538 40.8574 60.3538ZM46.2949 54.8401L46.3301 55.637C46.8145 55.0276 47.4473 54.7229 48.2285 54.7229C49.5684 54.7229 50.2441 55.4788 50.2559 56.9905V61.1799H49.1719V56.9846C49.168 56.5276 49.0625 56.1897 48.8555 55.9709C48.6523 55.7522 48.334 55.6428 47.9004 55.6428C47.5488 55.6428 47.2402 55.7366 46.9746 55.9241C46.709 56.1116 46.502 56.3577 46.3535 56.6624V61.1799H45.2695V54.8401H46.2949ZM54.4336 60.4124C54.8203 60.4124 55.1582 60.2952 55.4473 60.0608C55.7363 59.8264 55.8965 59.5334 55.9277 59.1819H56.9531C56.9336 59.5452 56.8086 59.8909 56.5781 60.219C56.3477 60.5471 56.0391 60.8088 55.6523 61.0042C55.2695 61.1995 54.8633 61.2971 54.4336 61.2971C53.5703 61.2971 52.8828 61.01 52.3711 60.4358C51.8633 59.8577 51.6094 59.0686 51.6094 58.0686V57.887C51.6094 57.2698 51.7227 56.7209 51.9492 56.2405C52.1758 55.76 52.5 55.387 52.9219 55.1213C53.3477 54.8557 53.8496 54.7229 54.4277 54.7229C55.1387 54.7229 55.7285 54.9358 56.1973 55.3616C56.6699 55.7874 56.9219 56.3401 56.9531 57.0198H55.9277C55.8965 56.6096 55.7402 56.2737 55.459 56.012C55.1816 55.7463 54.8379 55.6135 54.4277 55.6135C53.877 55.6135 53.4492 55.8127 53.1445 56.2112C52.8437 56.6057 52.6934 57.178 52.6934 57.928V58.1331C52.6934 58.8635 52.8437 59.426 53.1445 59.8206C53.4453 60.2151 53.875 60.4124 54.4336 60.4124ZM60.8027 61.2971C59.9434 61.2971 59.2441 61.0159 58.7051 60.4534C58.166 59.887 57.8965 59.1311 57.8965 58.1858V57.9866C57.8965 57.3577 58.0156 56.7971 58.2539 56.3049C58.4961 55.8088 58.832 55.4221 59.2617 55.1448C59.6953 54.8635 60.1641 54.7229 60.668 54.7229C61.4922 54.7229 62.1328 54.9944 62.5898 55.5374C63.0469 56.0803 63.2754 56.8577 63.2754 57.8694V58.3206H58.9805C58.9961 58.9456 59.1777 59.4514 59.5254 59.8381C59.877 60.2209 60.3223 60.4124 60.8613 60.4124C61.2441 60.4124 61.5684 60.3342 61.834 60.178C62.0996 60.0217 62.332 59.8147 62.5312 59.5569L63.1934 60.0725C62.6621 60.8889 61.8652 61.2971 60.8027 61.2971ZM60.668 55.6135C60.2305 55.6135 59.8633 55.7737 59.5664 56.094C59.2695 56.4104 59.0859 56.8557 59.0156 57.4299H62.1914V57.3479C62.1602 56.7971 62.0117 56.3713 61.7461 56.0706C61.4805 55.7659 61.1211 55.6135 60.668 55.6135ZM64.5 60.6116C64.5 60.4241 64.5547 60.2678 64.6641 60.1428C64.7773 60.0178 64.9453 59.9553 65.168 59.9553C65.3906 59.9553 65.5586 60.0178 65.6719 60.1428C65.7891 60.2678 65.8477 60.4241 65.8477 60.6116C65.8477 60.7913 65.7891 60.9417 65.6719 61.0627C65.5586 61.1838 65.3906 61.2444 65.168 61.2444C64.9453 61.2444 64.7773 61.1838 64.6641 61.0627C64.5547 60.9417 64.5 60.7913 64.5 60.6116ZM64.5059 55.4377C64.5059 55.2502 64.5605 55.094 64.6699 54.969C64.7832 54.844 64.9512 54.7815 65.1738 54.7815C65.3965 54.7815 65.5645 54.844 65.6777 54.969C65.7949 55.094 65.8535 55.2502 65.8535 55.4377C65.8535 55.6174 65.7949 55.7678 65.6777 55.8889C65.5645 56.01 65.3965 56.0706 65.1738 56.0706C64.9512 56.0706 64.7832 56.01 64.6699 55.8889C64.5605 55.7678 64.5059 55.6174 64.5059 55.4377Z" fill="#828282"/>
<path d="M74.7271 61.1799H73.1909V53.7595L70.9248 54.5339V53.2327L74.5303 51.906H74.7271V61.1799ZM78.3516 56.5969L78.853 51.9377H83.8169V53.2708H80.1353L79.8813 55.4797C80.3088 55.2343 80.7912 55.1116 81.3286 55.1116C82.2088 55.1116 82.8923 55.393 83.3789 55.9558C83.8698 56.5186 84.1152 57.2761 84.1152 58.2283C84.1152 59.1677 83.8444 59.9167 83.3027 60.4753C82.7611 61.0297 82.0184 61.3069 81.0747 61.3069C80.2284 61.3069 79.5259 61.0678 78.9673 60.5896C78.4129 60.1072 78.1125 59.4724 78.0659 58.6853H79.5576C79.6169 59.1339 79.7777 59.4788 80.04 59.72C80.3024 59.9569 80.6452 60.0754 81.0684 60.0754C81.5423 60.0754 81.9105 59.9062 82.1729 59.5676C82.4395 59.2291 82.5728 58.7678 82.5728 58.1838C82.5728 57.621 82.4268 57.1767 82.1348 56.8508C81.8428 56.5208 81.4408 56.3557 80.9287 56.3557C80.6494 56.3557 80.4124 56.3938 80.2178 56.47C80.0231 56.5419 79.8115 56.6858 79.583 56.9016L78.3516 56.5969ZM86.3877 59.5549C86.6755 59.5549 86.8976 59.6375 87.0542 59.8025C87.2108 59.9633 87.2891 60.1664 87.2891 60.4119C87.2891 60.6531 87.2108 60.8541 87.0542 61.0149C86.8976 61.1715 86.6755 61.2498 86.3877 61.2498C86.1126 61.2498 85.8947 61.1715 85.7339 61.0149C85.5731 60.8583 85.4927 60.6573 85.4927 60.4119C85.4927 60.1664 85.571 59.9633 85.7275 59.8025C85.8841 59.6375 86.1042 59.5549 86.3877 59.5549ZM94.9824 57.2888C94.9824 58.6176 94.7327 59.6205 94.2334 60.2976C93.7383 60.9705 92.9829 61.3069 91.9673 61.3069C90.9686 61.3069 90.2153 60.9789 89.7075 60.323C89.2039 59.6628 88.9458 58.6874 88.9331 57.3967V55.7971C88.9331 54.4683 89.1807 53.4718 89.6758 52.8074C90.1751 52.143 90.9347 51.8108 91.9546 51.8108C92.966 51.8108 93.7192 52.1345 94.2144 52.782C94.7137 53.4294 94.9697 54.3985 94.9824 55.6892V57.2888ZM93.4399 55.5623C93.4399 54.6947 93.3215 54.06 93.0845 53.658C92.8475 53.2517 92.4709 53.0486 91.9546 53.0486C91.451 53.0486 91.0807 53.2411 90.8438 53.6262C90.6068 54.0071 90.4819 54.6038 90.4692 55.4163V57.511C90.4692 58.3743 90.5898 59.0175 90.8311 59.4407C91.0723 59.8639 91.451 60.0754 91.9673 60.0754C92.4624 60.0754 92.8285 59.8808 93.0654 59.4915C93.3024 59.0979 93.4272 58.4843 93.4399 57.6506V55.5623ZM102.371 57.2888C102.371 58.6176 102.121 59.6205 101.622 60.2976C101.127 60.9705 100.372 61.3069 99.356 61.3069C98.3573 61.3069 97.604 60.9789 97.0962 60.323C96.5926 59.6628 96.3345 58.6874 96.3218 57.3967V55.7971C96.3218 54.4683 96.5693 53.4718 97.0645 52.8074C97.5638 52.143 98.3234 51.8108 99.3433 51.8108C100.355 51.8108 101.108 52.1345 101.603 52.782C102.102 53.4294 102.358 54.3985 102.371 55.6892V57.2888ZM100.829 55.5623C100.829 54.6947 100.71 54.06 100.473 53.658C100.236 53.2517 99.8595 53.0486 99.3433 53.0486C98.8397 53.0486 98.4694 53.2411 98.2324 53.6262C97.9954 54.0071 97.8706 54.6038 97.8579 55.4163V57.511C97.8579 58.3743 97.9785 59.0175 98.2197 59.4407C98.4609 59.8639 98.8397 60.0754 99.356 60.0754C99.8511 60.0754 100.217 59.8808 100.454 59.4915C100.691 59.0979 100.816 58.4843 100.829 57.6506V55.5623ZM113.981 51.9377V58.114C113.981 59.0958 113.666 59.8744 113.035 60.45C112.409 61.0212 111.573 61.3069 110.528 61.3069C109.47 61.3069 108.63 61.0255 108.008 60.4626C107.386 59.8956 107.075 59.1106 107.075 58.1077V51.9377H108.674V58.1204C108.674 58.7382 108.831 59.21 109.144 59.5359C109.457 59.8617 109.918 60.0247 110.528 60.0247C111.764 60.0247 112.381 59.373 112.381 58.0696V51.9377H113.981ZM120.532 58.7996C120.532 58.3933 120.388 58.0802 120.1 57.8601C119.817 57.6401 119.302 57.4179 118.558 57.1936C117.813 56.9693 117.22 56.7196 116.78 56.4446C115.938 55.9156 115.517 55.2258 115.517 54.3752C115.517 53.6305 115.82 53.0168 116.425 52.5344C117.034 52.052 117.823 51.8108 118.792 51.8108C119.436 51.8108 120.009 51.9293 120.513 52.1663C121.016 52.4032 121.412 52.7418 121.7 53.1819C121.987 53.6178 122.131 54.1023 122.131 54.6355H120.532C120.532 54.1531 120.379 53.7764 120.075 53.5056C119.774 53.2305 119.343 53.093 118.78 53.093C118.255 53.093 117.847 53.2052 117.555 53.4294C117.267 53.6537 117.123 53.9669 117.123 54.3689C117.123 54.7074 117.28 54.991 117.593 55.2195C117.906 55.4438 118.422 55.6638 119.142 55.8796C119.861 56.0912 120.439 56.3346 120.875 56.6096C121.31 56.8805 121.63 57.1936 121.833 57.5491C122.036 57.9003 122.138 58.3129 122.138 58.7869C122.138 59.557 121.841 60.1707 121.249 60.6277C120.661 61.0805 119.861 61.3069 118.85 61.3069C118.181 61.3069 117.565 61.1842 117.002 60.9387C116.444 60.689 116.008 60.3463 115.695 59.9104C115.386 59.4745 115.231 58.9667 115.231 58.387H116.837C116.837 58.9117 117.011 59.318 117.358 59.6057C117.705 59.8935 118.202 60.0374 118.85 60.0374C119.408 60.0374 119.827 59.9252 120.106 59.7009C120.39 59.4724 120.532 59.172 120.532 58.7996ZM123.547 61.1799V51.9377H126.276C127.093 51.9377 127.817 52.1197 128.447 52.4836C129.082 52.8476 129.573 53.3639 129.92 54.0325C130.267 54.7011 130.44 55.467 130.44 56.3303V56.7937C130.44 57.6697 130.265 58.4399 129.914 59.1042C129.567 59.7686 129.069 60.2807 128.422 60.6404C127.779 61.0001 127.04 61.1799 126.207 61.1799H123.547ZM125.153 53.2327V59.8977H126.2C127.042 59.8977 127.688 59.6353 128.136 59.1106C128.589 58.5816 128.82 57.8241 128.828 56.8381V56.324C128.828 55.321 128.61 54.5551 128.174 54.0261C127.738 53.4972 127.106 53.2327 126.276 53.2327H125.153Z" fill="#4F4F4F"/>
<path d="M23.7891 74.6487L26.25 81.1877L28.7051 74.6487H30.6211V83.1799H29.1445V80.3674L29.291 76.6057L26.7715 83.1799H25.7109L23.1973 76.6116L23.3438 80.3674V83.1799H21.8672V74.6487H23.7891ZM36.0293 83.1799C35.9668 83.0588 35.9121 82.8616 35.8652 82.5881C35.4121 83.0608 34.8574 83.2971 34.2012 83.2971C33.5645 83.2971 33.0449 83.1155 32.6426 82.7522C32.2402 82.3889 32.0391 81.9397 32.0391 81.4045C32.0391 80.7288 32.2891 80.2112 32.7891 79.8518C33.293 79.4885 34.0117 79.3069 34.9453 79.3069H35.8184V78.8909C35.8184 78.5627 35.7266 78.301 35.543 78.1057C35.3594 77.9065 35.0801 77.8069 34.7051 77.8069C34.3809 77.8069 34.1152 77.8889 33.9082 78.053C33.7012 78.2131 33.5977 78.4182 33.5977 78.6682H32.1738C32.1738 78.3206 32.2891 77.9963 32.5195 77.6956C32.75 77.3909 33.0625 77.1526 33.457 76.9807C33.8555 76.8088 34.2988 76.7229 34.7871 76.7229C35.5293 76.7229 36.1211 76.9104 36.5625 77.2854C37.0039 77.6565 37.2305 78.1799 37.2422 78.8557V81.7151C37.2422 82.2854 37.3223 82.7405 37.4824 83.0803V83.1799H36.0293ZM34.4648 82.1545C34.7461 82.1545 35.0098 82.0862 35.2559 81.9495C35.5059 81.8127 35.6934 81.6292 35.8184 81.3987V80.2034H35.0508C34.5234 80.2034 34.127 80.2952 33.8613 80.4788C33.5957 80.6624 33.4629 80.9221 33.4629 81.2581C33.4629 81.5315 33.5527 81.7502 33.7324 81.9143C33.916 82.0745 34.1602 82.1545 34.4648 82.1545ZM40.248 83.1799H38.8242V76.8401H40.248V83.1799ZM38.7363 75.1936C38.7363 74.9749 38.8047 74.7932 38.9414 74.6487C39.082 74.5042 39.2812 74.4319 39.5391 74.4319C39.7969 74.4319 39.9961 74.5042 40.1367 74.6487C40.2773 74.7932 40.3477 74.9749 40.3477 75.1936C40.3477 75.4084 40.2773 75.5881 40.1367 75.7327C39.9961 75.8733 39.7969 75.9436 39.5391 75.9436C39.2812 75.9436 39.082 75.8733 38.9414 75.7327C38.8047 75.5881 38.7363 75.4084 38.7363 75.1936ZM43.125 76.8401L43.166 77.5725C43.6348 77.0061 44.25 76.7229 45.0117 76.7229C46.332 76.7229 47.0039 77.4788 47.0273 78.9905V83.1799H45.6035V79.0725C45.6035 78.6702 45.5156 78.3733 45.3398 78.1819C45.168 77.9866 44.8848 77.8889 44.4902 77.8889C43.916 77.8889 43.4883 78.1487 43.207 78.6682V83.1799H41.7832V76.8401H43.125ZM50.2676 75.2991V76.8401H51.3867V77.8948H50.2676V81.4338C50.2676 81.676 50.3145 81.8518 50.4082 81.9612C50.5059 82.0667 50.6777 82.1194 50.9238 82.1194C51.0879 82.1194 51.2539 82.0999 51.4219 82.0608V83.1624C51.0977 83.2522 50.7852 83.2971 50.4844 83.2971C49.3906 83.2971 48.8438 82.6936 48.8438 81.4866V77.8948H47.8008V76.8401H48.8438V75.2991H50.2676ZM55.2715 83.2971C54.3691 83.2971 53.6367 83.0139 53.0742 82.4475C52.5156 81.8772 52.2363 81.1194 52.2363 80.1741V79.9983C52.2363 79.3655 52.3574 78.801 52.5996 78.3049C52.8457 77.8049 53.1895 77.4163 53.6309 77.1389C54.0723 76.8616 54.5645 76.7229 55.1074 76.7229C55.9707 76.7229 56.6367 76.9983 57.1055 77.5491C57.5781 78.0999 57.8145 78.8792 57.8145 79.887V80.4612H53.6719C53.7148 80.9846 53.8887 81.3987 54.1934 81.7034C54.502 82.0081 54.8887 82.1604 55.3535 82.1604C56.0059 82.1604 56.5371 81.8967 56.9473 81.3694L57.7148 82.1018C57.4609 82.4807 57.1211 82.7756 56.6953 82.9866C56.2734 83.1936 55.7988 83.2971 55.2715 83.2971ZM55.1016 77.8655C54.7109 77.8655 54.3945 78.0022 54.1523 78.2756C53.9141 78.5491 53.7617 78.9299 53.6953 79.4182H56.4082V79.3127C56.377 78.8362 56.25 78.4768 56.0273 78.2346C55.8047 77.9885 55.4961 77.8655 55.1016 77.8655ZM60.2461 76.8401L60.2871 77.5725C60.7559 77.0061 61.3711 76.7229 62.1328 76.7229C63.4531 76.7229 64.125 77.4788 64.1484 78.9905V83.1799H62.7246V79.0725C62.7246 78.6702 62.6367 78.3733 62.4609 78.1819C62.2891 77.9866 62.0059 77.8889 61.6113 77.8889C61.0371 77.8889 60.6094 78.1487 60.3281 78.6682V83.1799H58.9043V76.8401H60.2461ZM69.3926 83.1799C69.3301 83.0588 69.2754 82.8616 69.2285 82.5881C68.7754 83.0608 68.2207 83.2971 67.5645 83.2971C66.9277 83.2971 66.4082 83.1155 66.0059 82.7522C65.6035 82.3889 65.4023 81.9397 65.4023 81.4045C65.4023 80.7288 65.6523 80.2112 66.1523 79.8518C66.6562 79.4885 67.375 79.3069 68.3086 79.3069H69.1816V78.8909C69.1816 78.5627 69.0898 78.301 68.9062 78.1057C68.7227 77.9065 68.4434 77.8069 68.0684 77.8069C67.7441 77.8069 67.4785 77.8889 67.2715 78.053C67.0645 78.2131 66.9609 78.4182 66.9609 78.6682H65.5371C65.5371 78.3206 65.6523 77.9963 65.8828 77.6956C66.1133 77.3909 66.4258 77.1526 66.8203 76.9807C67.2188 76.8088 67.6621 76.7229 68.1504 76.7229C68.8926 76.7229 69.4844 76.9104 69.9258 77.2854C70.3672 77.6565 70.5938 78.1799 70.6055 78.8557V81.7151C70.6055 82.2854 70.6855 82.7405 70.8457 83.0803V83.1799H69.3926ZM67.8281 82.1545C68.1094 82.1545 68.373 82.0862 68.6191 81.9495C68.8691 81.8127 69.0566 81.6292 69.1816 81.3987V80.2034H68.4141C67.8867 80.2034 67.4902 80.2952 67.2246 80.4788C66.959 80.6624 66.8262 80.9221 66.8262 81.2581C66.8262 81.5315 66.916 81.7502 67.0957 81.9143C67.2793 82.0745 67.5234 82.1545 67.8281 82.1545ZM73.418 76.8401L73.459 77.5725C73.9277 77.0061 74.543 76.7229 75.3047 76.7229C76.625 76.7229 77.2969 77.4788 77.3203 78.9905V83.1799H75.8965V79.0725C75.8965 78.6702 75.8086 78.3733 75.6328 78.1819C75.4609 77.9866 75.1777 77.8889 74.7832 77.8889C74.209 77.8889 73.7812 78.1487 73.5 78.6682V83.1799H72.0762V76.8401H73.418ZM81.3809 82.1604C81.7363 82.1604 82.0312 82.0569 82.2656 81.8499C82.5 81.6428 82.625 81.387 82.6406 81.0823H83.9824C83.9668 81.4768 83.8437 81.8459 83.6133 82.1897C83.3828 82.5295 83.0703 82.7991 82.6758 82.9983C82.2813 83.1975 81.8555 83.2971 81.3984 83.2971C80.5117 83.2971 79.8086 83.01 79.2891 82.4358C78.7695 81.8616 78.5098 81.0686 78.5098 80.0569V79.9104C78.5098 78.9456 78.7676 78.1741 79.2832 77.5959C79.7988 77.0139 80.502 76.7229 81.3926 76.7229C82.1465 76.7229 82.7598 76.9436 83.2324 77.385C83.709 77.8225 83.959 78.3987 83.9824 79.1135H82.6406C82.625 78.7502 82.5 78.4514 82.2656 78.217C82.0352 77.9827 81.7402 77.8655 81.3809 77.8655C80.9199 77.8655 80.5645 78.0334 80.3145 78.3694C80.0645 78.7014 79.9375 79.2073 79.9336 79.887V80.1155C79.9336 80.803 80.0566 81.3167 80.3027 81.6565C80.5527 81.9924 80.9121 82.1604 81.3809 82.1604ZM87.8496 83.2971C86.9473 83.2971 86.2148 83.0139 85.6523 82.4475C85.0938 81.8772 84.8145 81.1194 84.8145 80.1741V79.9983C84.8145 79.3655 84.9355 78.801 85.1777 78.3049C85.4238 77.8049 85.7676 77.4163 86.209 77.1389C86.6504 76.8616 87.1426 76.7229 87.6855 76.7229C88.5488 76.7229 89.2148 76.9983 89.6836 77.5491C90.1563 78.0999 90.3926 78.8792 90.3926 79.887V80.4612H86.25C86.293 80.9846 86.4668 81.3987 86.7715 81.7034C87.0801 82.0081 87.4668 82.1604 87.9316 82.1604C88.584 82.1604 89.1152 81.8967 89.5254 81.3694L90.293 82.1018C90.0391 82.4807 89.6992 82.7756 89.2734 82.9866C88.8516 83.1936 88.377 83.2971 87.8496 83.2971ZM87.6797 77.8655C87.2891 77.8655 86.9727 78.0022 86.7305 78.2756C86.4922 78.5491 86.3398 78.9299 86.2734 79.4182H88.9863V79.3127C88.9551 78.8362 88.8281 78.4768 88.6055 78.2346C88.3828 77.9885 88.0742 77.8655 87.6797 77.8655ZM92.3613 81.6799C92.627 81.6799 92.832 81.7561 92.9766 81.9084C93.1211 82.0569 93.1934 82.2444 93.1934 82.4709C93.1934 82.6936 93.1211 82.8792 92.9766 83.0276C92.832 83.1721 92.627 83.2444 92.3613 83.2444C92.1074 83.2444 91.9062 83.1721 91.7578 83.0276C91.6094 82.8831 91.5352 82.6975 91.5352 82.4709C91.5352 82.2444 91.6074 82.0569 91.752 81.9084C91.8965 81.7561 92.0996 81.6799 92.3613 81.6799ZM92.3613 76.7053C92.627 76.7053 92.832 76.7815 92.9766 76.9338C93.1211 77.0823 93.1934 77.2698 93.1934 77.4963C93.1934 77.719 93.1211 77.9045 92.9766 78.053C92.832 78.1975 92.627 78.2698 92.3613 78.2698C92.1074 78.2698 91.9062 78.1975 91.7578 78.053C91.6094 77.9084 91.5352 77.7229 91.5352 77.4963C91.5352 77.2698 91.6074 77.0823 91.752 76.9338C91.8965 76.7815 92.0996 76.7053 92.3613 76.7053Z" fill="#828282"/>
<path d="M102.067 83.1799H100.531V75.7595L98.2646 76.5339V75.2327L101.87 73.906H102.067V83.1799ZM115.524 73.9377V80.114C115.524 81.0958 115.209 81.8744 114.578 82.45C113.952 83.0212 113.116 83.3069 112.071 83.3069C111.013 83.3069 110.173 83.0255 109.551 82.4626C108.929 81.8956 108.618 81.1106 108.618 80.1077V73.9377H110.217V80.1204C110.217 80.7382 110.374 81.21 110.687 81.5359C111 81.8617 111.461 82.0247 112.071 82.0247C113.306 82.0247 113.924 81.373 113.924 80.0696V73.9377H115.524ZM122.075 80.7996C122.075 80.3933 121.931 80.0802 121.643 79.8601C121.36 79.6401 120.845 79.4179 120.101 79.1936C119.356 78.9693 118.763 78.7196 118.323 78.4446C117.481 77.9156 117.06 77.2258 117.06 76.3752C117.06 75.6305 117.363 75.0168 117.968 74.5344C118.577 74.052 119.366 73.8108 120.335 73.8108C120.979 73.8108 121.552 73.9293 122.056 74.1663C122.559 74.4032 122.955 74.7418 123.243 75.1819C123.53 75.6178 123.674 76.1023 123.674 76.6355H122.075C122.075 76.1531 121.922 75.7764 121.618 75.5056C121.317 75.2305 120.886 75.093 120.323 75.093C119.798 75.093 119.39 75.2052 119.098 75.4294C118.81 75.6537 118.666 75.9669 118.666 76.3689C118.666 76.7074 118.823 76.991 119.136 77.2195C119.449 77.4438 119.965 77.6638 120.685 77.8796C121.404 78.0912 121.982 78.3346 122.417 78.6096C122.853 78.8805 123.173 79.1936 123.376 79.5491C123.579 79.9003 123.681 80.3129 123.681 80.7869C123.681 81.557 123.384 82.1707 122.792 82.6277C122.204 83.0805 121.404 83.3069 120.393 83.3069C119.724 83.3069 119.108 83.1842 118.545 82.9387C117.987 82.689 117.551 82.3463 117.238 81.9104C116.929 81.4745 116.774 80.9667 116.774 80.387H118.38C118.38 80.9117 118.554 81.318 118.901 81.6057C119.248 81.8935 119.745 82.0374 120.393 82.0374C120.951 82.0374 121.37 81.9252 121.649 81.7009C121.933 81.4724 122.075 81.172 122.075 80.7996ZM125.09 83.1799V73.9377H127.819C128.636 73.9377 129.36 74.1197 129.99 74.4836C130.625 74.8476 131.116 75.3639 131.463 76.0325C131.81 76.7011 131.983 77.467 131.983 78.3303V78.7937C131.983 79.6697 131.808 80.4399 131.457 81.1042C131.11 81.7686 130.612 82.2807 129.965 82.6404C129.322 83.0001 128.583 83.1799 127.75 83.1799H125.09ZM126.696 75.2327V81.8977H127.743C128.585 81.8977 129.231 81.6353 129.679 81.1106C130.132 80.5816 130.363 79.8241 130.371 78.8381V78.324C130.371 77.321 130.153 76.5551 129.717 76.0261C129.281 75.4972 128.649 75.2327 127.819 75.2327H126.696Z" fill="#4F4F4F"/>
</svg>
